<svg xmlns="http://www.w3.org/2000/svg" xmlns:xlink="http://www.w3.org/1999/xlink" width="1080" zoomAndPan="magnify" viewBox="0 0 810 809.999993" height="1080" preserveAspectRatio="xMidYMid meet" version="1.0"><defs><g/><clipPath id="c8ed68db12"><path d="M 145 353 L 229 353 L 229 436 L 145 436 Z M 145 353 " clip-rule="nonzero"/></clipPath><clipPath id="4cf12c9c7b"><path d="M 119.046875 389.414062 L 191.828125 316.757812 L 264.609375 389.414062 L 191.828125 462.070312 Z M 119.046875 389.414062 " clip-rule="nonzero"/></clipPath><clipPath id="d7568368df"><rect x="0" width="414" y="0" height="116"/></clipPath></defs><rect x="-81" width="972" fill="#ffffff" y="-80.999999" height="971.999992" fill-opacity="1"/><rect x="-81" width="972" fill="#ffffff" y="-80.999999" height="971.999992" fill-opacity="1"/><g clip-path="url(#c8ed68db12)"><g clip-path="url(#4cf12c9c7b)"><path fill="#ffffff" d="M 211.53125 428.777344 L 207.75 432.554688 C 207.367188 432.933594 206.898438 433.210938 206.382812 433.363281 C 205.867188 433.511719 205.320312 433.535156 204.796875 433.421875 C 204.269531 433.308594 203.78125 433.0625 203.375 432.714844 C 202.96875 432.363281 202.652344 431.914062 202.464844 431.414062 L 191.40625 402.082031 L 177.34375 415.511719 L 178.40625 426.589844 C 178.648438 428.746094 178.421875 430.042969 176.476562 431.984375 L 173.929688 434.527344 C 173.539062 434.945312 173.050781 435.257812 172.515625 435.449219 C 171.976562 435.636719 171.398438 435.691406 170.835938 435.613281 C 170.039062 435.496094 168.933594 435.054688 168.15625 433.628906 L 160.878906 420.742188 C 160.824219 420.644531 160.777344 420.546875 160.730469 420.441406 C 160.726562 420.433594 160.71875 420.425781 160.710938 420.421875 C 160.605469 420.378906 160.503906 420.328125 160.40625 420.269531 L 147.429688 412.949219 C 146.042969 412.171875 145.621094 411.085938 145.511719 410.304688 C 145.4375 409.78125 145.488281 409.25 145.660156 408.75 C 145.828125 408.246094 146.113281 407.792969 146.492188 407.425781 L 149.183594 404.738281 C 150.636719 403.289062 152.699219 402.53125 154.585938 402.753906 L 165.476562 403.8125 L 179.105469 389.800781 L 149.757812 378.792969 C 149.257812 378.605469 148.808594 378.292969 148.457031 377.886719 C 148.105469 377.480469 147.863281 376.992188 147.746094 376.46875 C 147.632812 375.945312 147.652344 375.398438 147.804688 374.882812 C 147.957031 374.371094 148.234375 373.902344 148.613281 373.519531 L 152.4375 369.703125 C 152.984375 369.179688 153.636719 368.785156 154.355469 368.550781 C 155.074219 368.316406 155.835938 368.246094 156.582031 368.347656 L 195.964844 372.171875 L 203.960938 363.757812 C 204.53125 363.125 206.183594 361.449219 206.570312 361.066406 C 214.429688 353.226562 221.671875 351.089844 225.945312 355.355469 C 227.289062 356.699219 229.246094 359.726562 227.234375 364.898438 C 226.050781 367.953125 223.695312 371.253906 220.230469 374.710938 C 219.851562 375.089844 218.179688 376.738281 217.535156 377.3125 L 209.105469 385.292969 L 212.894531 424.648438 C 212.988281 425.394531 212.917969 426.152344 212.683594 426.867188 C 212.449219 427.582031 212.054688 428.234375 211.53125 428.777344 Z M 211.53125 428.777344 " fill-opacity="1" fill-rule="nonzero"/></g></g><g transform="matrix(1, 0, 0, 1, 276, 330)"><g clip-path="url(#d7568368df)"><g fill="#ffffff" fill-opacity="1"><g transform="translate(0.907228, 89.904126)"><g><path d="M 31.234375 -10.796875 L 34.1875 -2.375 C 32.957031 -1.363281 31.410156 -0.570312 29.546875 0 C 27.691406 0.570312 25.585938 0.859375 23.234375 0.859375 C 18.335938 0.859375 14.613281 -0.472656 12.0625 -3.140625 C 9.519531 -5.804688 8.25 -9.6875 8.25 -14.78125 L 8.25 -36.28125 L 1.359375 -36.28125 L 1.359375 -45.3125 L 8.25 -45.3125 L 8.25 -54.140625 L 19.625 -55.984375 L 19.625 -45.3125 L 32.46875 -45.3125 L 32.46875 -36.28125 L 19.625 -36.28125 L 19.625 -15.59375 C 19.625 -13.351562 20.085938 -11.71875 21.015625 -10.6875 C 21.941406 -9.664062 23.296875 -9.15625 25.078125 -9.15625 C 27.097656 -9.15625 28.863281 -9.703125 30.375 -10.796875 Z M 31.234375 -10.796875 "/></g></g></g><g fill="#ffffff" fill-opacity="1"><g transform="translate(35.55116, 89.904126)"><g><path d="M 44.734375 -20.078125 L 15.640625 -20.078125 C 15.960938 -16.128906 17.082031 -13.257812 19 -11.46875 C 20.914062 -9.675781 23.53125 -8.78125 26.84375 -8.78125 C 29.445312 -8.78125 31.554688 -9.265625 33.171875 -10.234375 C 34.785156 -11.210938 36.082031 -12.6875 37.0625 -14.65625 L 37.921875 -14.65625 L 45.484375 -9.8125 C 44.003906 -6.632812 41.769531 -4.0625 38.78125 -2.09375 C 35.800781 -0.125 31.820312 0.859375 26.84375 0.859375 C 22.164062 0.859375 18.125 -0.0234375 14.71875 -1.796875 C 11.3125 -3.578125 8.679688 -6.222656 6.828125 -9.734375 C 4.984375 -13.253906 4.0625 -17.546875 4.0625 -22.609375 C 4.0625 -27.753906 5.03125 -32.09375 6.96875 -35.625 C 8.914062 -39.15625 11.546875 -41.789062 14.859375 -43.53125 C 18.171875 -45.269531 21.890625 -46.140625 26.015625 -46.140625 C 32.421875 -46.140625 37.328125 -44.441406 40.734375 -41.046875 C 44.140625 -37.648438 45.84375 -32.671875 45.84375 -26.109375 C 45.84375 -23.722656 45.765625 -21.875 45.609375 -20.5625 Z M 34.96875 -27.421875 C 34.863281 -30.867188 34.0625 -33.378906 32.5625 -34.953125 C 31.070312 -36.523438 28.890625 -37.3125 26.015625 -37.3125 C 20.273438 -37.3125 16.898438 -34.015625 15.890625 -27.421875 Z M 34.96875 -27.421875 "/></g></g><g transform="translate(84.766888, 89.904126)"><g><path d="M 6.53125 0 L 6.53125 -45.28125 L 17.5625 -45.28125 L 17.5625 -38.546875 L 18.4375 -38.375 C 19.53125 -40.894531 20.960938 -42.742188 22.734375 -43.921875 C 24.515625 -45.097656 26.675781 -45.6875 29.21875 -45.6875 C 31.789062 -45.6875 33.75 -45.25 35.09375 -44.375 L 33.171875 -34.5625 L 32.296875 -34.390625 C 31.554688 -34.691406 30.84375 -34.910156 30.15625 -35.046875 C 29.476562 -35.191406 28.648438 -35.265625 27.671875 -35.265625 C 24.492188 -35.265625 22.066406 -34.144531 20.390625 -31.90625 C 18.722656 -29.675781 17.890625 -26.101562 17.890625 -21.1875 L 17.890625 0 Z M 6.53125 0 "/></g></g><g transform="translate(120.272813, 89.904126)"><g><path d="M 6.53125 0 L 6.53125 -45.28125 L 17.5625 -45.28125 L 17.5625 -38.546875 L 18.4375 -38.375 C 19.53125 -40.894531 20.960938 -42.742188 22.734375 -43.921875 C 24.515625 -45.097656 26.675781 -45.6875 29.21875 -45.6875 C 31.789062 -45.6875 33.75 -45.25 35.09375 -44.375 L 33.171875 -34.5625 L 32.296875 -34.390625 C 31.554688 -34.691406 30.84375 -34.910156 30.15625 -35.046875 C 29.476562 -35.191406 28.648438 -35.265625 27.671875 -35.265625 C 24.492188 -35.265625 22.066406 -34.144531 20.390625 -31.90625 C 18.722656 -29.675781 17.890625 -26.101562 17.890625 -21.1875 L 17.890625 0 Z M 6.53125 0 "/></g></g></g><g fill="#ffffff" fill-opacity="1"><g transform="translate(154.916745, 89.904126)"><g><path d="M 17.65625 0.859375 C 14.75 0.859375 12.226562 0.328125 10.09375 -0.734375 C 7.957031 -1.804688 6.316406 -3.375 5.171875 -5.4375 C 4.023438 -7.5 3.453125 -9.984375 3.453125 -12.890625 C 3.453125 -15.566406 4.023438 -17.816406 5.171875 -19.640625 C 6.316406 -21.460938 8.09375 -22.953125 10.5 -24.109375 C 12.914062 -25.273438 16.066406 -26.171875 19.953125 -26.796875 C 22.660156 -27.234375 24.71875 -27.710938 26.125 -28.234375 C 27.53125 -28.753906 28.476562 -29.34375 28.96875 -30 C 29.46875 -30.65625 29.71875 -31.492188 29.71875 -32.515625 C 29.71875 -33.960938 29.210938 -35.066406 28.203125 -35.828125 C 27.191406 -36.597656 25.507812 -36.984375 23.15625 -36.984375 C 20.632812 -36.984375 18.238281 -36.421875 15.96875 -35.296875 C 13.695312 -34.171875 11.726562 -32.691406 10.0625 -30.859375 L 9.234375 -30.859375 L 4.46875 -38.046875 C 6.769531 -40.585938 9.578125 -42.570312 12.890625 -44 C 16.203125 -45.425781 19.8125 -46.140625 23.71875 -46.140625 C 29.71875 -46.140625 34.054688 -44.863281 36.734375 -42.3125 C 39.421875 -39.769531 40.765625 -36.160156 40.765625 -31.484375 L 40.765625 -11.828125 C 40.765625 -9.796875 41.648438 -8.78125 43.421875 -8.78125 C 44.109375 -8.78125 44.78125 -8.90625 45.4375 -9.15625 L 46.015625 -8.984375 L 46.828125 -1.0625 C 46.203125 -0.65625 45.328125 -0.320312 44.203125 -0.0625 C 43.085938 0.195312 41.859375 0.328125 40.515625 0.328125 C 37.804688 0.328125 35.691406 -0.191406 34.171875 -1.234375 C 32.648438 -2.273438 31.5625 -3.898438 30.90625 -6.109375 L 30.046875 -6.203125 C 27.828125 -1.492188 23.695312 0.859375 17.65625 0.859375 Z M 21.265625 -7.640625 C 23.890625 -7.640625 25.988281 -8.519531 27.5625 -10.28125 C 29.132812 -12.039062 29.921875 -14.5 29.921875 -17.65625 L 29.921875 -22.25 L 29.140625 -22.40625 C 28.453125 -21.863281 27.554688 -21.40625 26.453125 -21.03125 C 25.347656 -20.664062 23.753906 -20.304688 21.671875 -19.953125 C 19.210938 -19.535156 17.441406 -18.828125 16.359375 -17.828125 C 15.273438 -16.835938 14.734375 -15.425781 14.734375 -13.59375 C 14.734375 -11.644531 15.304688 -10.164062 16.453125 -9.15625 C 17.609375 -8.144531 19.210938 -7.640625 21.265625 -7.640625 Z M 21.265625 -7.640625 "/></g></g></g><g fill="#ffffff" fill-opacity="1"><g transform="translate(201.792777, 89.904126)"><g><path d="M 28.734375 -24.140625 L 3.578125 -24.140625 L 3.578125 -34.15625 L 28.734375 -34.15625 Z M 28.734375 -24.140625 "/></g></g><g transform="translate(234.179107, 89.904126)"><g><path d="M 31.640625 0.859375 C 25.867188 0.859375 21.578125 -1.300781 18.765625 -5.625 L 17.890625 -5.453125 L 17.890625 0 L 6.53125 0 L 6.53125 -63.453125 L 17.890625 -63.453125 L 17.890625 -39.9375 L 18.765625 -39.78125 C 20.316406 -41.9375 22.148438 -43.535156 24.265625 -44.578125 C 26.390625 -45.617188 28.929688 -46.140625 31.890625 -46.140625 C 35.554688 -46.140625 38.757812 -45.273438 41.5 -43.546875 C 44.238281 -41.828125 46.375 -39.207031 47.90625 -35.6875 C 49.4375 -32.175781 50.203125 -27.816406 50.203125 -22.609375 C 50.203125 -17.472656 49.40625 -13.144531 47.8125 -9.625 C 46.226562 -6.101562 44.039062 -3.472656 41.25 -1.734375 C 38.457031 -0.00390625 35.253906 0.859375 31.640625 0.859375 Z M 28.203125 -8.78125 C 31.535156 -8.78125 34.078125 -9.894531 35.828125 -12.125 C 37.578125 -14.351562 38.453125 -17.847656 38.453125 -22.609375 C 38.453125 -27.398438 37.578125 -30.910156 35.828125 -33.140625 C 34.078125 -35.367188 31.535156 -36.484375 28.203125 -36.484375 C 24.992188 -36.484375 22.453125 -35.332031 20.578125 -33.03125 C 18.703125 -30.738281 17.765625 -27.265625 17.765625 -22.609375 C 17.765625 -17.960938 18.703125 -14.492188 20.578125 -12.203125 C 22.453125 -9.921875 24.992188 -8.78125 28.203125 -8.78125 Z M 28.203125 -8.78125 "/></g></g><g transform="translate(288.402607, 89.904126)"><g><path d="M 17.65625 0.859375 C 14.75 0.859375 12.226562 0.328125 10.09375 -0.734375 C 7.957031 -1.804688 6.316406 -3.375 5.171875 -5.4375 C 4.023438 -7.5 3.453125 -9.984375 3.453125 -12.890625 C 3.453125 -15.566406 4.023438 -17.816406 5.171875 -19.640625 C 6.316406 -21.460938 8.09375 -22.953125 10.5 -24.109375 C 12.914062 -25.273438 16.066406 -26.171875 19.953125 -26.796875 C 22.660156 -27.234375 24.71875 -27.710938 26.125 -28.234375 C 27.53125 -28.753906 28.476562 -29.34375 28.96875 -30 C 29.46875 -30.65625 29.71875 -31.492188 29.71875 -32.515625 C 29.71875 -33.960938 29.210938 -35.066406 28.203125 -35.828125 C 27.191406 -36.597656 25.507812 -36.984375 23.15625 -36.984375 C 20.632812 -36.984375 18.238281 -36.421875 15.96875 -35.296875 C 13.695312 -34.171875 11.726562 -32.691406 10.0625 -30.859375 L 9.234375 -30.859375 L 4.46875 -38.046875 C 6.769531 -40.585938 9.578125 -42.570312 12.890625 -44 C 16.203125 -45.425781 19.8125 -46.140625 23.71875 -46.140625 C 29.71875 -46.140625 34.054688 -44.863281 36.734375 -42.3125 C 39.421875 -39.769531 40.765625 -36.160156 40.765625 -31.484375 L 40.765625 -11.828125 C 40.765625 -9.796875 41.648438 -8.78125 43.421875 -8.78125 C 44.109375 -8.78125 44.78125 -8.90625 45.4375 -9.15625 L 46.015625 -8.984375 L 46.828125 -1.0625 C 46.203125 -0.65625 45.328125 -0.320312 44.203125 -0.0625 C 43.085938 0.195312 41.859375 0.328125 40.515625 0.328125 C 37.804688 0.328125 35.691406 -0.191406 34.171875 -1.234375 C 32.648438 -2.273438 31.5625 -3.898438 30.90625 -6.109375 L 30.046875 -6.203125 C 27.828125 -1.492188 23.695312 0.859375 17.65625 0.859375 Z M 21.265625 -7.640625 C 23.890625 -7.640625 25.988281 -8.519531 27.5625 -10.28125 C 29.132812 -12.039062 29.921875 -14.5 29.921875 -17.65625 L 29.921875 -22.25 L 29.140625 -22.40625 C 28.453125 -21.863281 27.554688 -21.40625 26.453125 -21.03125 C 25.347656 -20.664062 23.753906 -20.304688 21.671875 -19.953125 C 19.210938 -19.535156 17.441406 -18.828125 16.359375 -17.828125 C 15.273438 -16.835938 14.734375 -15.425781 14.734375 -13.59375 C 14.734375 -11.644531 15.304688 -10.164062 16.453125 -9.15625 C 17.609375 -8.144531 19.210938 -7.640625 21.265625 -7.640625 Z M 21.265625 -7.640625 "/></g></g><g transform="translate(336.140631, 89.904126)"><g><path d="M 12.1875 -50.6875 C 10.132812 -50.6875 8.460938 -51.304688 7.171875 -52.546875 C 5.890625 -53.796875 5.25 -55.40625 5.25 -57.375 C 5.25 -59.320312 5.890625 -60.914062 7.171875 -62.15625 C 8.460938 -63.40625 10.132812 -64.03125 12.1875 -64.03125 C 13.5625 -64.03125 14.78125 -63.742188 15.84375 -63.171875 C 16.90625 -62.597656 17.726562 -61.8125 18.3125 -60.8125 C 18.90625 -59.8125 19.203125 -58.664062 19.203125 -57.375 C 19.203125 -56.09375 18.90625 -54.945312 18.3125 -53.9375 C 17.726562 -52.925781 16.90625 -52.128906 15.84375 -51.546875 C 14.78125 -50.972656 13.5625 -50.6875 12.1875 -50.6875 Z M 3.53125 19.203125 C 0.1875 19.203125 -2.492188 18.765625 -4.515625 17.890625 L -3.125 8.953125 L -2.34375 8.703125 C -1.25 9.222656 0.0351562 9.484375 1.515625 9.484375 C 4.859375 9.484375 6.53125 7.515625 6.53125 3.578125 L 6.53125 -45.28125 L 17.890625 -45.28125 L 17.890625 3.25 C 17.890625 8.53125 16.671875 12.507812 14.234375 15.1875 C 11.804688 17.863281 8.238281 19.203125 3.53125 19.203125 Z M 3.53125 19.203125 "/></g></g><g transform="translate(360.522735, 89.904126)"><g><path d="M 26.3125 0.859375 C 21.875 0.859375 17.976562 -0.046875 14.625 -1.859375 C 11.28125 -3.679688 8.679688 -6.347656 6.828125 -9.859375 C 4.984375 -13.378906 4.0625 -17.628906 4.0625 -22.609375 C 4.0625 -27.597656 4.984375 -31.851562 6.828125 -35.375 C 8.679688 -38.90625 11.28125 -41.582031 14.625 -43.40625 C 17.976562 -45.226562 21.875 -46.140625 26.3125 -46.140625 C 30.738281 -46.140625 34.628906 -45.226562 37.984375 -43.40625 C 41.335938 -41.582031 43.941406 -38.90625 45.796875 -35.375 C 47.660156 -31.851562 48.59375 -27.597656 48.59375 -22.609375 C 48.59375 -17.628906 47.660156 -13.378906 45.796875 -9.859375 C 43.941406 -6.347656 41.335938 -3.679688 37.984375 -1.859375 C 34.628906 -0.046875 30.738281 0.859375 26.3125 0.859375 Z M 26.3125 -8.78125 C 33.34375 -8.78125 36.859375 -13.390625 36.859375 -22.609375 C 36.859375 -27.398438 35.953125 -30.910156 34.140625 -33.140625 C 32.335938 -35.367188 29.726562 -36.484375 26.3125 -36.484375 C 19.28125 -36.484375 15.765625 -31.859375 15.765625 -22.609375 C 15.765625 -13.390625 19.28125 -8.78125 26.3125 -8.78125 Z M 26.3125 -8.78125 "/></g></g></g></g></g></svg>